<?xml version="1.0" encoding="utf-8"?>
<!-- Generator: Adobe Illustrator 27.9.1, SVG Export Plug-In . SVG Version: 6.00 Build 0)  -->
<svg version="1.1" id="圖層_1" xmlns="http://www.w3.org/2000/svg" xmlns:xlink="http://www.w3.org/1999/xlink" x="0px" y="0px"
	 viewBox="0 0 16 16" style="enable-background:new 0 0 16 16;" xml:space="preserve">
<style type="text/css">
	.st0{fill:#98A7B5;}
</style>
<path class="st0" d="M13.4,11.2C15.1,9.7,16,8,16,8s-3-5.5-8-5.5c-1,0-1.9,0.2-2.8,0.6L6,3.9c0.6-0.2,1.3-0.4,2-0.4
	c2.1,0,3.9,1.2,5.2,2.5c0.6,0.6,1.2,1.3,1.7,2c-0.1,0.1-0.1,0.2-0.2,0.3c-0.3,0.5-0.8,1.1-1.5,1.8c-0.2,0.2-0.3,0.3-0.5,0.5
	L13.4,11.2z"/>
<path class="st0" d="M11.3,9.2c0.7-1.8-0.3-3.8-2.1-4.5c-0.8-0.3-1.6-0.3-2.4,0l0.8,0.8c1.4-0.2,2.6,0.8,2.8,2.1c0,0.2,0,0.5,0,0.7
	L11.3,9.2z M8.4,10.5l0.8,0.8C7.4,11.9,5.4,11,4.7,9.2c-0.3-0.8-0.3-1.6,0-2.4l0.8,0.8C5.3,9,6.3,10.3,7.6,10.5
	C7.9,10.5,8.1,10.5,8.4,10.5"/>
<path class="st0" d="M3.3,5.5C3.2,5.6,3,5.8,2.8,6C2.2,6.6,1.7,7.3,1.2,8l0.2,0.3C1.7,8.8,2.2,9.4,2.8,10c1.3,1.3,3,2.5,5.2,2.5
	c0.7,0,1.4-0.1,2-0.4l0.8,0.8C9.9,13.3,9,13.5,8,13.5C3,13.5,0,8,0,8s0.9-1.7,2.6-3.2L3.3,5.5L3.3,5.5z M13.6,14.4l-12-12l0.7-0.7
	l12,12L13.6,14.4z"/>
</svg>
