<?xml version="1.0" encoding="utf-8"?>
<!-- Generator: Adobe Illustrator 27.9.1, SVG Export Plug-In . SVG Version: 6.00 Build 0)  -->
<svg version="1.1" id="圖層_1" xmlns="http://www.w3.org/2000/svg" xmlns:xlink="http://www.w3.org/1999/xlink" x="0px" y="0px"
	 viewBox="0 0 100 100" style="enable-background:new 0 0 100 100;" xml:space="preserve">
<style type="text/css">
	.st0{fill:#38569F;}
	.st1{fill:#FFFFFF;}
</style>
<g>
	<circle class="st0" cx="50" cy="50" r="50"/>
</g>
<path class="st1" d="M79,50.2C79,34.1,66,21,50,21c-16,0-29,13.1-29,29.2C21,64.7,31.6,76.8,45.5,79V58.6h-7.4v-8.4h7.4v-6.4
	c0-7.3,4.3-11.3,11-11.3c3.2,0,6.5,0.6,6.5,0.6v7.2h-3.7c-3.6,0-4.7,2.3-4.7,4.6v5.5h8l-1.3,8.4h-6.8V79C68.4,76.8,79,64.7,79,50.2"
	/>
</svg>
