<?xml version="1.0" encoding="utf-8"?>
<!-- Generator: Adobe Illustrator 27.9.1, SVG Export Plug-In . SVG Version: 6.00 Build 0)  -->
<svg version="1.1" id="圖層_1" xmlns="http://www.w3.org/2000/svg" xmlns:xlink="http://www.w3.org/1999/xlink" x="0px" y="0px"
	 viewBox="0 0 100 100" style="enable-background:new 0 0 100 100;" xml:space="preserve">
<style type="text/css">
	.st0{fill:#CCCCCC;}
	.st1{fill:#FFFFFF;}
</style>
<g>
	<circle class="st0" cx="50" cy="50" r="50"/>
</g>
<path class="st1" d="M21.2,33.9c0.8-3.3,3.7-5.6,7.1-5.6h43.5c3.4,0,6.3,2.3,7.1,5.6L50,51.5L21.2,33.9z M21,38v25.8l21-12.9L21,38z
	 M45.5,53L21.7,67.6c1.2,2.5,3.8,4.1,6.6,4.1h43.5c2.8,0,5.4-1.6,6.6-4.1L54.5,53L50,55.7L45.5,53z M58,50.9l21,12.9V38L58,50.9z"/>
</svg>
