<?xml version="1.0" standalone="no"?><!DOCTYPE svg PUBLIC "-//W3C//DTD SVG 1.1//EN" "http://www.w3.org/Graphics/SVG/1.1/DTD/svg11.dtd"><svg t="1631776296438" class="icon" viewBox="0 0 1117 1024" version="1.1" xmlns="http://www.w3.org/2000/svg" p-id="1537" xmlns:xlink="http://www.w3.org/1999/xlink" width="218.1640625" height="200"><defs><style type="text/css"></style></defs><path d="M404.596364 668.392727c15.476364 0 28.625455 12.8 28.625454 27.857455 0 66.304 54.155636 118.295273 122.996364 118.295273 68.864 0 123.019636-51.991273 123.019636-118.295273 0-15.080727 13.149091-27.880727 28.625455-27.880727H1090.792727c11.613091 0 21.643636 6.795636 26.298182 16.570181-6.190545-20.317091-17.012364-41.425455-18.548364-44.450909 0-0.744727-0.791273-0.744727-0.791272-0.744727l-122.996364-189.858909c0-0.768-0.768-0.768-0.768-1.512727-2.327273-2.257455-20.898909-25.623273-42.565818-37.678546-22.434909-12.8-53.364364-15.057455-57.250909-15.057454H216.622545c-5.422545 0-31.720727 0.744727-52.596363 12.8-20.898909 12.8-36.375273 34.676364-37.934546 36.933818 0 0-0.744727 0.744727-0.744727 1.489454L21.643636 626.176c-3.095273 4.514909-13.125818 21.853091-21.643636 48.989091 5.399273-3.770182 11.589818-6.795636 19.316364-6.795636h385.28z" fill="#7C7C7C" opacity=".478" p-id="1538"></path><path d="M1117.090909 739.095273c0-2.257455-1.536-21.969455-5.352727-40.913455v3.025455c0 7.447273-2.955636 14.592-8.238546 19.851636a28.276364 28.276364 0 0 1-20.014545 8.192H732.253091l-3.816727 14.405818c-19.851636 78.033455-90.856727 131.84-171.799273 131.84-81.687273 0-152.715636-54.574545-172.567273-131.84l-3.816727-14.429091H26.740364a28.16 28.16 0 0 1-25.204364-15.872C0 726.970182 0 737.582545 0 742.144v204.567273c0 3.793455 2.280727 34.862545 24.436364 55.319272C46.545455 1022.464 81.687273 1024 85.527273 1024h1.512727-0.744727 939.170909c6.865455 0 41.216-0.768 64.884363-21.969455 23.691636-21.224727 25.204364-50.036364 25.204364-58.344727l1.536-204.567273z" fill="#9E9E9E" opacity=".458" p-id="1539"></path><path d="M555.287273 302.545455c-22.062545-0.093091-39.936-17.570909-40.029091-39.168V39.168c0.093091-21.597091 17.966545-39.098182 40.029091-39.168 22.109091 0.093091 39.982545 17.570909 40.052363 39.168v224.977455c0 21.504-18.059636 38.4-40.029091 38.4z m267.682909-1.536a40.261818 40.261818 0 0 1-36.072727-22.248728 38.632727 38.632727 0 0 1 4.654545-41.495272l91.089455-109.800728c7.68-9.262545 19.2-14.615273 31.394909-14.592 9.402182 0 18.036364 3.072 25.111272 8.448 8.610909 6.144 13.335273 16.128 14.917819 26.112 0.768 9.984-2.350545 20.736-8.61091 28.392728l-91.089454 109.824c-7.842909 10.752-18.850909 16.128-31.394909 15.36z m-530.618182-2.304a41.797818 41.797818 0 0 1-31.394909-14.592L171.473455 173.544727a39.307636 39.307636 0 0 1 6.283636-55.296 41.122909 41.122909 0 0 1 25.111273-8.424727c12.567273 0 23.552 5.352727 31.418181 14.568727l89.460364 110.568728a39.307636 39.307636 0 0 1-6.283636 55.296c-7.214545 5.376-16.034909 8.331636-25.134546 8.448z" fill="#7C7C7C" opacity=".478" p-id="1540"></path></svg>