<?xml version="1.0" encoding="utf-8"?>
<!-- Generator: Adobe Illustrator 28.0.0, SVG Export Plug-In . SVG Version: 6.00 Build 0)  -->
<svg version="1.1" id="圖層_1" xmlns="http://www.w3.org/2000/svg" xmlns:xlink="http://www.w3.org/1999/xlink" x="0px" y="0px"
	 viewBox="0 0 432.5 262.5" style="enable-background:new 0 0 432.5 262.5;" xml:space="preserve">
<style type="text/css">
	.st0{fill:#98A7B5;}
</style>
<g>
	<path class="st0" d="M63,234.5H0L54.5,24.5h101c24.8,0,43.4,3.9,55.9,11.6c12.5,7.8,18.7,19.1,18.7,34c0,2.7-0.2,5.5-0.6,8.3
		c-0.4,2.8-1.1,5.8-1.9,9c-3.1,12.2-8.8,22.6-17,31.3c-8.2,8.7-18.8,15.5-31.8,20.3c8.2,3.4,13.7,7.7,16.7,12.9
		c2.9,5.2,4.4,11,4.4,17.3c0,4.2-0.4,8.6-1.3,13.2c-0.8,4.6-1.8,9.2-2.8,13.9c-0.2,0.6-0.4,1.2-0.5,1.7c-0.1,0.5-0.3,1.1-0.5,1.7
		c-0.8,4-1.6,8-2.4,12.1c-0.7,4.1-1.1,8-1.1,11.8c0,1.9,0.1,3.7,0.3,5.5c0.2,1.8,0.5,3.5,0.9,5.2h-65.5c0-3.8,0.4-7.8,1.1-12
		c0.7-4.2,1.6-8.5,2.7-12.9c0.8-4.4,1.6-8.7,2.4-12.9c0.7-4.2,1.1-8.2,1.1-12c-0.2-6.5-2.1-11.9-5.5-16.2
		c-3.5-4.3-10.4-6.4-20.9-6.4H81.8L63,234.5z M93.5,116.8h35.9c7.3,0,13.9-1.5,19.8-4.4c5.9-2.9,9.9-8.5,12-16.7
		c0.4-1.5,0.7-2.8,0.9-4.1s0.3-2.4,0.3-3.5c-0.2-4.4-2.1-7.5-5.5-9.3c-3.5-1.8-9.1-2.7-16.8-2.7h-36.2L93.5,116.8z"/>
	<path class="st0" d="M295.2,163.7c-0.2,1.3-0.4,2.5-0.5,3.6c-0.1,1.2-0.2,2.3-0.2,3.3c0,6.5,2.2,11.1,6.6,13.9
		c4.4,2.7,11.5,4.1,21.4,4.1c8.6,0,15.4-1.4,20.5-4.1c5-2.7,8.3-6.7,9.8-12c0.4-1.1,0.7-1.9,0.8-2.7c0.1-0.7,0-1.5-0.2-2.4
		c0-1.7-0.5-3.1-1.4-4.2c-0.9-1.1-2.6-2.2-4.9-3.3c-1.5-0.8-3.3-1.6-5.5-2.4c-2.2-0.7-4.8-1.5-7.7-2.4c-0.4-0.2-0.9-0.4-1.4-0.5
		c-0.5-0.1-1.1-0.3-1.7-0.5c-2.7-0.8-5.6-1.7-8.5-2.5c-2.9-0.8-5.9-1.7-8.8-2.5c-13.6-4.2-26.2-9.8-37.6-16.9
		c-11.4-7.1-17.1-18.2-17.1-33.2c0-2.3,0.2-4.8,0.5-7.6s0.9-5.4,1.7-8.2c5.2-20.2,15.5-34.6,30.9-43c15.3-8.4,31.7-13.7,49.1-15.8
		c1.7-0.2,3.4-0.4,5-0.5c1.7-0.1,3.4-0.3,5-0.5L357.2,0h24.2l-6.3,23.6c17.8,0.9,31.9,4.6,42.2,11.4c10.3,6.8,15.3,17.7,15.1,32.9
		c0,3.2-0.2,6.5-0.6,10.1c-0.4,3.6-1.2,7.4-2.2,11.4h-56.4c0.2-1.3,0.4-2.5,0.5-3.6c0.1-1.2,0.2-2.2,0.2-3.3c0-5.4-1.8-9.4-5.4-11.8
		c-3.6-2.4-9.3-3.6-17.3-3.6c-8.8,0-15.9,1.3-21.1,3.8c-5.2,2.5-8.5,6.2-9.8,11c-0.2,0.8-0.4,1.6-0.5,2.2c-0.1,0.6-0.2,1.3-0.2,1.9
		c0,1.9,0.6,3.5,1.7,4.9c1.1,1.4,3.1,2.7,5.8,3.9c2.3,1.1,5,2.1,8.2,3c3.1,0.9,6.9,2,11.3,3.3c1.9,0.4,3.8,0.9,5.7,1.4
		c1.9,0.5,3.8,1.1,5.7,1.7c13.9,4,26.5,9.7,38.1,17.1c11.5,7.4,17.2,18.8,17,34.1c0,2.3-0.2,4.8-0.5,7.4s-0.9,5.4-1.7,8.3
		c-4.6,17.6-14.8,32-30.5,43.4s-35.8,18.2-60.1,20.7l-6.9,27.4h-24.2l6.9-27.1c-13.4-0.6-24.5-2.7-33.4-6.1s-15.9-8.4-21.1-14.9
		c-3.1-3.8-5.5-7.8-6.9-12c-1.5-4.2-2.2-9-2.2-14.5c0-3.4,0.3-7,0.8-11c0.5-4,1.2-8.4,2.1-13.2L295.2,163.7L295.2,163.7z"/>
</g>
</svg>
