<?xml version="1.0" encoding="utf-8"?>
<!-- Generator: Adobe Illustrator 28.0.0, SVG Export Plug-In . SVG Version: 6.00 Build 0)  -->
<svg version="1.1" id="圖層_1" xmlns="http://www.w3.org/2000/svg" xmlns:xlink="http://www.w3.org/1999/xlink" x="0px" y="0px"
	 viewBox="0 0 432.48 262.51" style="enable-background:new 0 0 432.48 262.51;" xml:space="preserve">
<style type="text/css">
	.st0{fill:#FFFFFF;}
</style>
<g>
	<path class="st0" d="M62.95,234.49H0L54.45,24.55h101.04c24.76,0,43.38,3.89,55.87,11.65c12.48,7.77,18.73,19.1,18.73,33.99
		c0,2.73-0.21,5.51-0.63,8.34c-0.42,2.83-1.05,5.82-1.89,8.97c-3.15,12.17-8.81,22.61-17,31.32c-8.18,8.71-18.78,15.48-31.79,20.3
		c8.18,3.36,13.74,7.66,16.68,12.91c2.94,5.25,4.41,11.02,4.41,17.31c0,4.2-0.42,8.61-1.26,13.22c-0.84,4.62-1.79,9.24-2.83,13.85
		c-0.21,0.63-0.37,1.21-0.47,1.73c-0.11,0.53-0.27,1.1-0.47,1.73c-0.84,3.99-1.63,8.03-2.36,12.12c-0.74,4.09-1.1,8.03-1.1,11.8
		c0,1.89,0.1,3.73,0.31,5.51c0.21,1.79,0.52,3.52,0.94,5.19h-65.47c0-3.78,0.36-7.76,1.1-11.96c0.73-4.2,1.62-8.5,2.67-12.91
		c0.84-4.41,1.62-8.7,2.36-12.9c0.73-4.2,1.1-8.18,1.1-11.96c-0.21-6.5-2.05-11.91-5.51-16.21c-3.46-4.3-10.44-6.45-20.93-6.45
		H81.84L62.95,234.49z M93.48,116.77h35.88c7.34,0,13.95-1.47,19.83-4.41c5.87-2.94,9.86-8.5,11.96-16.68
		c0.42-1.47,0.73-2.83,0.94-4.09c0.21-1.26,0.31-2.41,0.31-3.46c-0.21-4.41-2.05-7.5-5.51-9.29c-3.46-1.78-9.08-2.68-16.84-2.68
		h-36.2L93.48,116.77z"/>
	<path class="st0" d="M295.24,163.67c-0.21,1.26-0.37,2.47-0.47,3.62c-0.11,1.16-0.16,2.26-0.16,3.3c0,6.51,2.2,11.12,6.61,13.85
		c4.41,2.73,11.54,4.09,21.4,4.09c8.6,0,15.42-1.36,20.46-4.09c5.04-2.72,8.29-6.71,9.76-11.96c0.42-1.05,0.68-1.94,0.79-2.68
		c0.1-0.73,0.05-1.52-0.16-2.36c0-1.68-0.47-3.09-1.42-4.24c-0.94-1.15-2.57-2.25-4.88-3.29c-1.47-0.84-3.3-1.62-5.51-2.35
		c-2.2-0.73-4.78-1.51-7.71-2.35c-0.42-0.21-0.89-0.36-1.42-0.47c-0.53-0.1-1.1-0.26-1.73-0.47c-2.73-0.83-5.56-1.67-8.5-2.5
		c-2.94-0.84-5.88-1.67-8.81-2.51c-13.64-4.17-26.18-9.81-37.61-16.91c-11.44-7.1-17.15-18.17-17.15-33.21
		c0-2.31,0.16-4.83,0.47-7.55c0.31-2.72,0.89-5.45,1.73-8.18c5.24-20.25,15.53-34.59,30.85-43.03c15.31-8.44,31.68-13.71,49.1-15.82
		c1.68-0.21,3.35-0.36,5.04-0.47c1.68-0.11,3.35-0.27,5.04-0.48L357.25,0h24.24l-6.29,23.61c17.83,0.85,31.89,4.64,42.18,11.39
		c10.28,6.75,15.31,17.71,15.11,32.89c0,3.17-0.21,6.54-0.63,10.12c-0.42,3.59-1.16,7.38-2.2,11.39H373.3
		c0.21-1.26,0.36-2.46,0.47-3.62c0.1-1.15,0.16-2.25,0.16-3.3c0-5.45-1.79-9.39-5.35-11.8c-3.57-2.41-9.34-3.62-17.31-3.62
		c-8.81,0-15.85,1.26-21.09,3.78c-5.25,2.52-8.5,6.19-9.76,11.02c-0.21,0.84-0.37,1.57-0.47,2.2c-0.11,0.63-0.16,1.26-0.16,1.89
		c0,1.89,0.58,3.51,1.73,4.87c1.15,1.36,3.09,2.67,5.82,3.92c2.31,1.05,5.04,2.05,8.18,2.99c3.15,0.94,6.92,2.04,11.33,3.3
		c1.89,0.42,3.78,0.89,5.67,1.41c1.89,0.53,3.78,1.1,5.67,1.73c13.85,3.98,26.54,9.69,38.09,17.12c11.54,7.44,17.2,18.79,17,34.08
		c0,2.31-0.16,4.77-0.47,7.38s-0.89,5.39-1.73,8.32c-4.62,17.59-14.79,32.04-30.53,43.35c-15.74,11.31-35.78,18.22-60.12,20.73
		l-6.92,27.38h-24.24l6.92-27.07c-13.43-0.63-24.55-2.68-33.36-6.14c-8.81-3.46-15.85-8.44-21.09-14.95
		c-3.15-3.78-5.46-7.76-6.92-11.96c-1.47-4.19-2.2-9.02-2.2-14.48c0-3.35,0.26-7.03,0.79-11.02c0.52-3.98,1.21-8.39,2.05-13.22
		H295.24z"/>
</g>
</svg>
