<?xml version="1.0" encoding="utf-8"?>
<!-- Generator: Adobe Illustrator 27.9.1, SVG Export Plug-In . SVG Version: 6.00 Build 0)  -->
<svg version="1.1" id="圖層_1" xmlns="http://www.w3.org/2000/svg" xmlns:xlink="http://www.w3.org/1999/xlink" x="0px" y="0px"
	 viewBox="0 0 100 100" style="enable-background:new 0 0 100 100;" xml:space="preserve">
<style type="text/css">
	.st0{fill:#1A9276;}
	.st1{fill:#FFFFFF;}
</style>
<g>
	<circle class="st0" cx="50" cy="50" r="50"/>
</g>
<path class="st1" d="M60.9,30.1c0-5,4.1-9.1,9.1-9.1c5,0,9.1,4.1,9.1,9.1s-4.1,9.1-9.1,9.1c-2.6,0-5.2-1.2-6.9-3.2L38.7,47.3
	c0.6,1.8,0.6,3.7,0,5.5L63.1,64c3.3-3.8,9-4.2,12.8-1c3.8,3.3,4.2,9,1,12.8c-3.3,3.8-9,4.2-12.8,1c-2.8-2.4-3.8-6.1-2.7-9.6
	L36.9,55.9c-3.3,3.8-9,4.2-12.8,1c-3.8-3.3-4.2-9-1-12.8c3.3-3.8,9-4.2,12.8-1c0.3,0.3,0.7,0.6,1,1l24.4-11.3
	C61,31.9,60.9,31,60.9,30.1"/>
</svg>
