<?xml version="1.0" encoding="utf-8"?>
<!-- Generator: Adobe Illustrator 27.9.1, SVG Export Plug-In . SVG Version: 6.00 Build 0)  -->
<svg version="1.1" id="圖層_1" xmlns="http://www.w3.org/2000/svg" xmlns:xlink="http://www.w3.org/1999/xlink" x="0px" y="0px"
	 viewBox="0 0 100 100" style="enable-background:new 0 0 100 100;" xml:space="preserve">
<style type="text/css">
	.st0{fill:#26D367;}
	.st1{fill:#FFFFFF;}
</style>
<g>
	<circle class="st0" cx="50" cy="50" r="50"/>
</g>
<path class="st1" d="M70.5,29.3c-5.4-5.4-12.8-8.5-20.4-8.5c-15.9,0-28.9,13-28.9,28.9c0,5.1,1.3,10.1,3.8,14.4l-4.1,15l15.3-4
	c4.2,2.3,9,3.5,13.8,3.5h0C66,78.6,79,65.7,79,49.8C79,42.1,76,34.7,70.5,29.3L70.5,29.3z M50.1,73.7c-4.3,0-8.5-1.2-12.2-3.4
	L37,69.9l-9.1,2.4l2.4-8.9l-0.6-0.9c-2.4-3.8-3.7-8.2-3.7-12.8c0-13.2,10.8-24,24-24c6.4,0,12.5,2.5,17,7c4.5,4.5,7,10.6,7,17
	C74.1,63,63.3,73.7,50.1,73.7 M63.3,55.8c-0.7-0.4-4.3-2.1-4.9-2.4c-0.7-0.2-1.1-0.4-1.6,0.4c-0.5,0.7-1.9,2.4-2.3,2.8
	c-0.4,0.5-0.8,0.5-1.6,0.2c-0.7-0.4-3-1.1-5.8-3.6c-2.1-1.9-3.6-4.3-4-5c-0.4-0.7,0-1.1,0.3-1.5c0.3-0.3,0.7-0.8,1.1-1.3
	c0.4-0.4,0.5-0.7,0.7-1.2c0.2-0.5,0.1-0.9-0.1-1.3c-0.2-0.4-1.6-3.9-2.2-5.4c-0.6-1.4-1.2-1.2-1.6-1.2c-0.4,0-0.9,0-1.4,0
	c-0.7,0-1.4,0.3-1.9,0.9c-0.7,0.7-2.5,2.5-2.5,6s2.6,7,2.9,7.5c0.4,0.5,5.1,7.8,12.3,10.9c1.7,0.7,3.1,1.2,4.1,1.5
	c1.7,0.6,3.3,0.5,4.5,0.3c1.4-0.2,4.3-1.7,4.9-3.4c0.6-1.7,0.6-3.1,0.4-3.4C64.5,56.3,64,56.1,63.3,55.8"/>
</svg>
